<svg xmlns="http://www.w3.org/2000/svg" width="142.031" height="129" viewBox="0 0 142.031 129">
  <g id="wifi" transform="translate(1 -22.823)">
    <g id="Group_96" data-name="Group 96" transform="translate(108.62 144.296)">
      <g id="Group_95" data-name="Group 95">
        <path id="Path_752" data-name="Path 752" d="M402.725,465.269a3.65,3.65,0,0,0-.5-.408,3.457,3.457,0,0,0-.565-.3,3.285,3.285,0,0,0-.61-.183,3.235,3.235,0,0,0-1.276,0,3.28,3.28,0,0,0-.61.183,3.216,3.216,0,0,0-1.061.708,3.289,3.289,0,0,0-.957,2.308,3.2,3.2,0,0,0,.065.636,3.3,3.3,0,0,0,.186.61,3.217,3.217,0,0,0,.3.565,3.174,3.174,0,0,0,.9.9,3.333,3.333,0,0,0,.565.3,3.3,3.3,0,0,0,.61.186,3.148,3.148,0,0,0,1.276,0,3.288,3.288,0,0,0,.61-.186,3.276,3.276,0,0,0,1.061-.705,3.319,3.319,0,0,0,.4-.5,3.207,3.207,0,0,0,.3-.565,3.3,3.3,0,0,0,.186-.61,3.219,3.219,0,0,0,.062-.636A3.284,3.284,0,0,0,402.725,465.269Z" transform="translate(-397.15 -464.315)" fill="#334463" stroke="#334463" stroke-width="2"/>
      </g>
    </g>
    <g id="Group_98" data-name="Group 98" transform="translate(0 23.823)">
      <g id="Group_97" data-name="Group 97">
        <path id="Path_753" data-name="Path 753" d="M128.584,23.823H11.447A11.46,11.46,0,0,0,0,35.27v79.625a11.46,11.46,0,0,0,11.447,11.447H50.756c.035.741.056,1.486.056,2.23,0,7.4-1.683,11.588-4.633,15.722H28.145a3.264,3.264,0,1,0,0,6.528h72.534a3.264,3.264,0,1,0,0-6.528H93.852c-2.949-4.134-4.632-8.319-4.632-15.722,0-.745.021-1.489.056-2.23h39.309a11.459,11.459,0,0,0,11.447-11.447V35.27A11.46,11.46,0,0,0,128.584,23.823ZM6.528,35.27a4.924,4.924,0,0,1,4.918-4.918H128.584A4.924,4.924,0,0,1,133.5,35.27v64.839H6.528Zm47.33,109.024c2.171-4.087,3.482-8.887,3.482-15.722q0-1.116-.046-2.23H82.737q-.046,1.113-.046,2.23c0,6.836,1.311,11.636,3.482,15.722Zm79.645-29.4a4.924,4.924,0,0,1-4.918,4.918H11.447a4.924,4.924,0,0,1-4.918-4.918v-8.258H133.5v8.258Z" transform="translate(0 -23.823)" fill="#334463" stroke="#334463" stroke-width="2"/>
      </g>
    </g>
    <g id="Group_100" data-name="Group 100" transform="translate(64.031 109.961)">
      <g id="Group_99" data-name="Group 99">
        <path id="Path_754" data-name="Path 754" d="M242.824,338.771h-5.44a3.264,3.264,0,1,0,0,6.528h5.44a3.264,3.264,0,1,0,0-6.528Z" transform="translate(-234.119 -338.771)" fill="#334463" stroke="#334463" stroke-width="2"/>
      </g>
    </g>
    <g id="Group_102" data-name="Group 102" transform="translate(34.437 37.687)">
      <g id="Group_101" data-name="Group 101">
        <path id="Path_755" data-name="Path 755" d="M196.118,88.9a48.856,48.856,0,0,0-69.251,0,3.264,3.264,0,0,0,4.622,4.61,42.327,42.327,0,0,1,60.007,0,3.264,3.264,0,0,0,4.622-4.611Z" transform="translate(-125.914 -74.513)" fill="#334463" stroke="#334463" stroke-width="2"/>
      </g>
    </g>
    <g id="Group_104" data-name="Group 104" transform="translate(44.369 49.453)">
      <g id="Group_103" data-name="Group 103">
        <path id="Path_756" data-name="Path 756" d="M212.568,127.8a34.823,34.823,0,0,0-49.39,0,3.264,3.264,0,0,0,4.624,4.608,28.3,28.3,0,0,1,40.141,0,3.264,3.264,0,1,0,4.624-4.608Z" transform="translate(-162.227 -117.534)" fill="#334463" stroke="#334463" stroke-width="2"/>
      </g>
    </g>
    <g id="Group_106" data-name="Group 106" transform="translate(54.294 61.219)">
      <g id="Group_105" data-name="Group 105">
        <path id="Path_757" data-name="Path 757" d="M229.01,166.7a20.823,20.823,0,0,0-29.546,0,3.264,3.264,0,1,0,4.63,4.6,14.295,14.295,0,0,1,20.284,0,3.264,3.264,0,0,0,4.631-4.6Z" transform="translate(-198.516 -160.555)" fill="#334463" stroke="#334463" stroke-width="2"/>
      </g>
    </g>
    <g id="Group_108" data-name="Group 108" transform="translate(60.039 72.757)">
      <g id="Group_107" data-name="Group 107">
        <path id="Path_758" data-name="Path 758" d="M229.5,202.743a9.976,9.976,0,1,0,9.976,9.976A9.987,9.987,0,0,0,229.5,202.743Zm0,13.424a3.448,3.448,0,1,1,3.448-3.448A3.452,3.452,0,0,1,229.5,216.167Z" transform="translate(-219.524 -202.743)" fill="#334463" stroke="#334463" stroke-width="2"/>
      </g>
    </g>
  </g>
</svg>
