<svg xmlns="http://www.w3.org/2000/svg" width="130.028" height="130.043" viewBox="0 0 130.028 130.043">
  <g id="scholarship" transform="translate(1 1.042)">
    <path id="Path_749" data-name="Path 749" d="M127.841,315.952a10.308,10.308,0,0,0-5.419-7.629,8.727,8.727,0,0,0-9.932,1.59L92.33,329.149c-.832-5.329-5.03-9.4-10.068-9.4H63.233l-3.454-2.344a33.115,33.115,0,0,0-18.637-5.823H40.106A26.292,26.292,0,0,0,23,318.026v-.455a5.3,5.3,0,0,0-5-5.547H5a5.3,5.3,0,0,0-5,5.547v41.047a5.3,5.3,0,0,0,5,5.547H18a4.935,4.935,0,0,0,4.323-2.773H41.5a2.788,2.788,0,0,0,0-5.547H23v-30.3a22.082,22.082,0,0,1,17.106-8.41h1.036a28.478,28.478,0,0,1,16.027,5.008l4.055,2.752a2.32,2.32,0,0,0,1.3.407H82.262a5.836,5.836,0,0,1,.256,11.573H56.583a2.788,2.788,0,0,0,0,5.547l25.679.007c.137,0,.272,0,.407-.009a9.248,9.248,0,0,0,6.167-2.619l26.9-25.671a4.085,4.085,0,0,1,4.647-.74,4.767,4.767,0,0,1,2.538,3.574,5.168,5.168,0,0,1-1.216,4.344L98.225,347.375a24.662,24.662,0,0,1-18.426,8.47H64a2.788,2.788,0,0,0,0,5.547H79.8a29.39,29.39,0,0,0,21.962-10.1l23.484-26.066a11.182,11.182,0,0,0,2.6-9.277ZM5,358.618l0-41.047H18v41.047Zm0,0" transform="translate(0 -236.164)" fill="#334463" stroke="#334463" stroke-width="2"/>
    <path id="Path_750" data-name="Path 750" d="M59.182,33.067,77.33,44.946v18.9a4.938,4.938,0,0,0,1.882,3.978L97.56,81.516a8.9,8.9,0,0,0,10.845,0l18.348-13.693a4.94,4.94,0,0,0,1.881-3.978v-18.9l14.529-9.51v8.882c-3.36,1.187-5.808,4.778-5.808,9.013v23.01a2.615,2.615,0,0,0,2.42,2.773h11.616a2.615,2.615,0,0,0,2.42-2.773V53.331c0-4.235-2.448-7.826-5.808-9.013V30.659a2.868,2.868,0,0,0-1.22-2.408L104.183.366a2.158,2.158,0,0,0-2.4,0L59.182,28.25a2.987,2.987,0,0,0,0,4.817Zm64.612,30.345L105.763,76.867a4.562,4.562,0,0,1-5.562,0L82.17,63.412v-15.3L101.783,60.95a2.155,2.155,0,0,0,2.4,0l19.611-12.836Zm25.177,10.155H142.2V53.331a3.42,3.42,0,1,1,6.776,0Zm-45.989-67.6,33.483,21.917H109.742a7.369,7.369,0,0,0-6.761-5.294c-4,0-7.26,3.733-7.26,8.32s3.257,8.32,7.26,8.32c3.237,0,5.985-2.441,6.919-5.8h26.566L102.982,55.348,65.261,30.659ZM105.4,30.911a2.442,2.442,0,1,1-4.84,0,2.442,2.442,0,1,1,4.84,0Zm0,0" transform="translate(-41.886)" fill="#334463" stroke="#334463" stroke-width="2"/>
    <path id="Path_751" data-name="Path 751" d="M203.773,482a2.774,2.774,0,1,0,1.961.813A2.8,2.8,0,0,0,203.773,482Zm0,0" transform="translate(-150.974 -362.319)" fill="#334463" stroke="#334463" stroke-width="2"/>
  </g>
</svg>
