<svg xmlns="http://www.w3.org/2000/svg" width="129" height="129.164" viewBox="0 0 129 129.164">
  <g id="certificate" transform="translate(-293.5 -188.5)">
    <path id="Path_752" data-name="Path 752" d="M416.5,314H433a2.5,2.5,0,0,0,0-5H416.5a2.5,2.5,0,0,0,0,5Z" transform="translate(-90 -90)" fill="#334463" stroke="#334463" stroke-width="1"/>
    <path id="Path_753" data-name="Path 753" d="M479.5,374a2.5,2.5,0,0,0,0-5h-63a2.5,2.5,0,0,0,0,5Z" transform="translate(-90 -135)" fill="#334463" stroke="#334463" stroke-width="1"/>
    <ellipse id="Ellipse_9" data-name="Ellipse 9" cx="3" cy="2.5" rx="3" ry="2.5" transform="translate(355 189)" fill="#334463" stroke="#334463" stroke-width="1"/>
    <path id="Path_754" data-name="Path 754" d="M419.5,189H369.25a2.5,2.5,0,0,0,0,5H417v85H388.62a21.11,21.11,0,0,0,1.88-8.75c0-.417-.016-.834-.04-1.25H397a2.5,2.5,0,0,0,2.5-2.5,5.006,5.006,0,0,1,5-5A2.5,2.5,0,0,0,407,259V214a2.5,2.5,0,0,0-2.5-2.5,5.006,5.006,0,0,1-5-5A2.5,2.5,0,0,0,397,204H319a2.5,2.5,0,0,0-2.5,2.5,5.006,5.006,0,0,1-5,5A2.5,2.5,0,0,0,309,214v45a2.5,2.5,0,0,0,2.5,2.5,5.006,5.006,0,0,1,5,5,2.5,2.5,0,0,0,2.495,2.5H348.04c-.025.419-.04.836-.04,1.253a21.113,21.113,0,0,0,1.879,8.75H299V194h47.75a2.5,2.5,0,0,0,0-5H296.5a2.5,2.5,0,0,0-2.5,2.5v90a2.5,2.5,0,0,0,2.5,2.5h56.552a21.2,21.2,0,0,0,2.448,2.448V314.5a2.5,2.5,0,0,0,3.861,2.1l10.164-6.592,9.562,6.557A2.5,2.5,0,0,0,383,314.5V286.448A21.191,21.191,0,0,0,385.448,284H419.5a2.5,2.5,0,0,0,2.5-2.5v-90A2.5,2.5,0,0,0,419.5,189ZM353,270.25a16.25,16.25,0,1,1,16.25,16.25A16.25,16.25,0,0,1,353,270.25Zm-39-13.434V216.184A10.037,10.037,0,0,0,321.184,209h73.633A10.037,10.037,0,0,0,402,216.184v40.633A10.036,10.036,0,0,0,394.816,264h-5.255a21.252,21.252,0,0,0-40.623,0H321.184A10.036,10.036,0,0,0,314,256.816Zm56.975,48.122a2.5,2.5,0,0,0-2.775-.036l-7.7,5V289.62a21.306,21.306,0,0,0,17.5,0v20.134Z" fill="#334463" stroke="#334463" stroke-width="1"/>
  </g>
</svg>
