<svg xmlns="http://www.w3.org/2000/svg" xmlns:xlink="http://www.w3.org/1999/xlink" width="1004" height="701" viewBox="0 0 1004 701">
  <defs>
    <linearGradient id="linear-gradient" y1="0.5" x2="1" y2="0.5" gradientUnits="objectBoundingBox">
      <stop offset="0" stop-color="#ce4912"/>
      <stop offset="0.615" stop-color="#ef6423"/>
      <stop offset="1" stop-color="#ff722c"/>
    </linearGradient>
  </defs>
  <g id="Group_113" data-name="Group 113" transform="translate(-4728 748)">
    <path id="Intersection_2" data-name="Intersection 2" d="M863.518,675.362c-110.6,24.123-220.522,35.458-295.375-45.4s-171.2-62.4-232.517-46.379-187.51-10.13-269.053-65.976S1.847,344.532,88.909,325.586s263.9-18.4,227.26-73.745,56.232-29.318,153.193,29.191,23.956,14.852,130.059-11.125,124.072-15.371,207.948,27.01C864.9,325.989,941.537,290.13,1004,255.444V696.779C978.735,678.61,929.947,660.872,863.518,675.362Z" transform="translate(4728 -748)" fill="#fff"/>
    <rect id="Rectangle_36" data-name="Rectangle 36" width="1004" height="701" transform="translate(4728 -748)" fill="none"/>
    <g id="Group_110" data-name="Group 110" transform="translate(3737 -1072)">
      <g id="Group_76" data-name="Group 76" transform="translate(941.359 352.004)">
        <g id="Layer_6" data-name="Layer 6" transform="translate(192.992 60.996)">
          <path id="Path_650" data-name="Path 650" d="M463.974,61,294.45,158.879l33.9,19.577L192.735,256.762l101.714,58.73,101.714-58.73,33.9,19.577h67.81l33.9-19.577L633.5,315.492l101.715-58.73L599.593,178.456l33.9-19.577Z" transform="translate(-192.735 -60.996)" fill="#9e4644"/>
        </g>
        <g id="Layer_9" data-name="Layer 9" transform="translate(192.992 139.302)">
          <path id="Path_651" data-name="Path 651" d="M192.735,277.867,328.355,199.56l-33.9-19.577L463.974,82.1,633.5,179.984l-33.9,19.577,135.619,78.307L633.5,336.6l-101.714-58.73-33.9,19.577h-67.81l-33.9-19.577L294.45,336.6Z" transform="translate(-192.735 -82.101)" fill="#c6c6c6"/>
          <path id="Path_652" data-name="Path 652" d="M196.174,278.251,313.87,210.3a7.421,7.421,0,0,0,0-12.853l-11.647-6.723a7.421,7.421,0,0,1,0-12.853L456.907,88.553a7.425,7.425,0,0,1,7.421,0l154.684,89.315a7.421,7.421,0,0,1,0,12.853l-11.643,6.723a7.419,7.419,0,0,0,0,12.853l117.692,67.955a4.531,4.531,0,0,1,0,7.847l-91.208,52.665a7.426,7.426,0,0,1-7.421,0l-94.295-54.446a7.426,7.426,0,0,0-7.421,0l-28.473,16.441a7.4,7.4,0,0,1-3.71.994H428.7a7.4,7.4,0,0,1-3.71-.994l-28.473-16.441a7.425,7.425,0,0,0-7.421,0l-94.291,54.446a7.426,7.426,0,0,1-7.421,0L196.174,286.1A4.531,4.531,0,0,1,196.174,278.251Z" transform="translate(-189.555 -67.306)" fill="#c6c6c6" opacity="0.8"/>
          <path id="Path_653" data-name="Path 653" d="M196.222,285.264,313.914,217.31a7.421,7.421,0,0,0,0-12.853l-11.643-6.727a7.419,7.419,0,0,1,0-12.853L456.955,95.566a7.408,7.408,0,0,1,7.421,0l154.681,89.312a7.419,7.419,0,0,1,0,12.853l-11.643,6.727a7.421,7.421,0,0,0,0,12.853l117.7,67.955a4.531,4.531,0,0,1,0,7.847L633.9,345.777a7.426,7.426,0,0,1-7.421,0l-94.295-54.446a7.425,7.425,0,0,0-7.421,0l-28.47,16.441a7.442,7.442,0,0,1-3.71.994H428.749a7.441,7.441,0,0,1-3.71-.994l-28.473-16.441a7.425,7.425,0,0,0-7.421,0L294.85,345.777a7.426,7.426,0,0,1-7.421,0l-91.208-52.665A4.531,4.531,0,0,1,196.222,285.264Z" transform="translate(-189.425 -48.306)" fill="#c6c6c6" opacity="0.6"/>
          <path id="Path_654" data-name="Path 654" d="M196.222,292.976l117.692-67.955a7.421,7.421,0,0,0,0-12.853l-11.643-6.723a7.418,7.418,0,0,1,0-12.853l154.684-89.315a7.426,7.426,0,0,1,7.421,0l154.681,89.315a7.419,7.419,0,0,1,0,12.853l-11.643,6.723a7.421,7.421,0,0,0,0,12.853l117.7,67.955a4.531,4.531,0,0,1,0,7.847L633.9,353.489a7.426,7.426,0,0,1-7.421,0l-94.295-54.446a7.425,7.425,0,0,0-7.421,0l-28.47,16.441a7.4,7.4,0,0,1-3.71.994H428.749a7.4,7.4,0,0,1-3.71-.994l-28.473-16.441a7.425,7.425,0,0,0-7.421,0L294.85,353.489a7.426,7.426,0,0,1-7.421,0l-91.208-52.665A4.531,4.531,0,0,1,196.222,292.976Z" transform="translate(-189.425 -27.396)" fill="#c6c6c6" opacity="0.4"/>
          <path id="Path_655" data-name="Path 655" d="M196.174,302.125l117.7-67.959a7.421,7.421,0,0,0,0-12.853l-11.647-6.723a7.421,7.421,0,0,1,0-12.853l154.684-89.315a7.426,7.426,0,0,1,7.421,0l154.684,89.315a7.421,7.421,0,0,1,0,12.853l-11.643,6.723a7.419,7.419,0,0,0,0,12.853l117.692,67.959a4.531,4.531,0,0,1,0,7.847l-91.208,52.661a7.407,7.407,0,0,1-7.421,0l-94.295-54.442a7.408,7.408,0,0,0-7.421,0l-28.473,16.437a7.4,7.4,0,0,1-3.71.994H428.7a7.4,7.4,0,0,1-3.71-.994l-28.473-16.437a7.408,7.408,0,0,0-7.421,0l-94.291,54.442a7.407,7.407,0,0,1-7.421,0l-91.211-52.661A4.531,4.531,0,0,1,196.174,302.125Z" transform="translate(-189.555 -2.61)" fill="#c6c6c6" stroke="#707070" stroke-width="1" opacity="0.2"/>
        </g>
        <g id="Layer_8" data-name="Layer 8" transform="translate(192.641 60.996)">
          <path id="Path_656" data-name="Path 656" d="M294.355,250.794l.352-78.307-101.714-58.73-.351,78.307Z" transform="translate(-192.641 82.008)" fill="#c6c6c6"/>
          <path id="Path_657" data-name="Path 657" d="M321.769,192.065l.352-78.307-101.714,58.73-.352,78.307Z" transform="translate(-118.34 82.008)" fill="#eaefee"/>
          <path id="Path_658" data-name="Path 658" d="M281.373,211.641l.351-78.307-33.9-19.577-.352,78.307Z" transform="translate(-44.039 82.008)" fill="#c6c6c6"/>
          <path id="Path_659" data-name="Path 659" d="M324.416,197.341l.351-78.307h-67.81l-.351,78.307Z" transform="translate(-19.272 96.309)" fill="#d8d8d8"/>
          <path id="Path_660" data-name="Path 660" d="M308.787,192.065l.351-78.307-33.9,19.577-.351,78.307Z" transform="translate(30.261 82.008)" fill="#eaefee"/>
          <path id="Path_661" data-name="Path 661" d="M385.639,250.794l.7-78.307-101.714-58.73-.7,78.307Z" transform="translate(54.772 82.008)" fill="#c6c6c6"/>
          <path id="Path_662" data-name="Path 662" d="M413.053,192.065l.7-78.307-101.715,58.73-.7,78.307Z" transform="translate(129.072 82.008)" fill="#eaefee"/>
          <path id="Path_663" data-name="Path 663" d="M192.735,128.058,294.45,108.482v78.307Z" transform="translate(-192.384 67.708)" fill="#ce4912" style="isolation: isolate"/>
          <path id="Path_664" data-name="Path 664" d="M220.149,165.683,355.768,87.377v78.307L220.149,243.99Z" transform="translate(-118.083 10.506)" fill="#f36b1c" style="isolation: isolate"/>
          <path id="Path_665" data-name="Path 665" d="M328.355,106.954,430.069,87.377,294.45,165.683,192.735,185.26Z" transform="translate(-192.384 10.506)" fill="#bf390a" style="isolation: isolate"/>
          <path id="Path_666" data-name="Path 666" d="M311.528,186.788V108.482l101.715,19.577Z" transform="translate(129.586 67.708)" fill="#f36b1c" style="isolation: isolate"/>
          <path id="Path_667" data-name="Path 667" d="M274.977,165.683V87.377L410.6,165.683V243.99Z" transform="translate(30.518 10.506)" fill="#ce4912" style="isolation: isolate"/>
          <path id="Path_668" data-name="Path 668" d="M512.31,185.26,410.6,165.683,274.977,87.377l101.714,19.577Z" transform="translate(30.518 10.506)" fill="#ff722c" style="isolation: isolate"/>
          <path id="Path_669" data-name="Path 669" d="M256.7,165.683l33.9,19.577V106.954L256.7,87.377Z" transform="translate(-19.016 10.506)" fill="#ce4912" style="isolation: isolate"/>
          <path id="Path_670" data-name="Path 670" d="M299.743,165.683l-33.9,19.577V106.954l33.9-19.577Z" transform="translate(5.751 10.506)" fill="#f36b1c" style="isolation: isolate"/>
          <path id="Path_671" data-name="Path 671" d="M254.054,121.254l-33.9-19.577L321.863,82.1l33.9,19.577Z" transform="translate(-118.083 -3.794)" fill="#ce4912" style="isolation: isolate"/>
          <path id="Path_672" data-name="Path 672" d="M409.893,102.083,308.881,82.1l-33.9,19.577,101.714,19.577Z" transform="translate(30.518 -3.794)" fill="#f36b1c" style="isolation: isolate"/>
          <path id="Path_673" data-name="Path 673" d="M220.149,158.879,389.673,61v39.153L321.863,139.3Z" transform="translate(-118.083 -60.996)" fill="#bf390a" style="isolation: isolate"/>
          <path id="Path_674" data-name="Path 674" d="M434.66,159.285,265.839,61v39.153l67.81,39.153Z" transform="translate(5.751 -60.996)" fill="#ff722c" style="isolation: isolate"/>
          <path id="Path_675" data-name="Path 675" d="M247.563,129.611l67.81-65.039-.257,107.4Z" transform="translate(-43.783 -51.304)" fill="#ce4912" style="isolation: isolate"/>
          <path id="Path_676" data-name="Path 676" d="M333.648,129.611l-67.81-65.039-.257,109.066Z" transform="translate(5.751 -51.304)" fill="#f36b1c" style="isolation: isolate"/>
          <path id="Path_677" data-name="Path 677" d="M247.563,128.058l33.9-19.577,33.9,19.577v19.577h-33.9Z" transform="translate(-43.783 67.708)" fill="#eaefee"/>
          <path id="Path_678" data-name="Path 678" d="M333.648,128.058l-33.9-19.577-33.9,19.577v19.577h33.9Z" transform="translate(5.751 67.708)" fill="#c6c6c6"/>
          <path id="Path_679" data-name="Path 679" d="M220.149,87.377V126.53l33.9-19.577Z" transform="translate(-118.083 10.506)" fill="#c6c6c6"/>
          <path id="Path_680" data-name="Path 680" d="M335.592,126.64V87.486l-33.2,19.171Z" transform="translate(104.819 10.803)" fill="#eaefee"/>
          <g id="Group_74" data-name="Group 74" transform="translate(275.754 60.142)">
            <rect id="Rectangle_23" data-name="Rectangle 23" width="4.229" height="23.136" transform="translate(0 21.724) rotate(-29.111)" fill="#eaefee"/>
            <path id="Path_681" data-name="Path 681" d="M270.423,91.713l5.769-3.212,9.4,16.884,3.723-2.073-9.4-16.884,5.8-3.228-1.854-3.329-15.289,8.514Z" transform="translate(-262.603 -69.982)" fill="#eaefee"/>
            <path id="Path_682" data-name="Path 682" d="M285.235,79.183,290,87.742c.972,1.744,1.874,3.324,2.835,4.879-1.276-.813-2.645-1.618-4.126-2.423l-11.766-6.4-3.64,2.026,11.253,20.214,3.555-1.981-4.861-8.727c-1.113-2-2.048-3.629-2.953-5.131,1.317.827,2.816,1.707,4.575,2.671L296.6,99.337l3.443-1.918L288.785,77.205Z" transform="translate(-249.774 -77.205)" fill="#eaefee"/>
          </g>
          <g id="Group_75" data-name="Group 75" transform="translate(217.697 58.84)">
            <rect id="Rectangle_24" data-name="Rectangle 24" width="23.136" height="4.229" transform="translate(0 20.214) rotate(-60.89)" fill="#c6c6c6"/>
            <path id="Path_683" data-name="Path 683" d="M258.109,81.079l5.769,3.212-9.4,16.884,3.723,2.073,9.4-16.884,5.8,3.228,1.854-3.329-15.289-8.513Z" transform="translate(-242.741 -74.427)" fill="#c6c6c6"/>
            <path id="Path_684" data-name="Path 684" d="M280.844,87.027l-4.768,8.56c-.968,1.744-1.837,3.343-2.653,4.979.018-1.514-.019-3.1-.115-4.783l-.757-13.372-3.64-2.026L257.654,100.6l3.554,1.978,4.861-8.727c1.113-2,2-3.655,2.809-5.217-.015,1.555.033,3.295.137,5.3L269.7,107.3l3.443,1.918L284.4,89.008Z" transform="translate(-234.128 -67.284)" fill="#c6c6c6"/>
          </g>
        </g>
      </g>
      <path id="Path_685" data-name="Path 685" d="M249.006,94.39a8.883,8.883,0,0,1-4.051,7.451l-.614.347-31.318,18.16-.529.307-.016-.013a12.917,12.917,0,0,1-6.5,1.769,13.062,13.062,0,0,1-4.123-25.457,19.376,19.376,0,0,1,36.959-11.323,7.012,7.012,0,0,1,1.309-.11A8.877,8.877,0,0,1,249.006,94.39Z" transform="translate(1113.086 304.523)" fill="#fff"/>
      <path id="Path_686" data-name="Path 686" d="M381.236,91.914a8.882,8.882,0,0,1-4.054,7.451l-.61.347-31.321,18.16-.529.307-.016-.016a12.917,12.917,0,0,1-6.5,1.769,13.062,13.062,0,0,1-4.123-25.457,19.376,19.376,0,0,1,36.959-11.32,6.768,6.768,0,0,1,1.312-.113A8.881,8.881,0,0,1,381.236,91.914Z" transform="translate(1323.793 442.242)" fill="#fff"/>
      <path id="Path_687" data-name="Path 687" d="M381.235,91.914a8.882,8.882,0,0,1-4.054,7.451l-.61.347-31.321,18.16-.529.307-.016-.016a12.917,12.917,0,0,1-6.5,1.769,13.062,13.062,0,0,1-4.123-25.457,19.376,19.376,0,0,1,36.959-11.32,6.768,6.768,0,0,1,1.312-.113A8.881,8.881,0,0,1,381.235,91.914Z" transform="translate(799.793 430.242)" fill="#fff"/>
    </g>
    <path id="Path_761" data-name="Path 761" d="M-34.009-229.491V-199.1a8.51,8.51,0,0,1-8.509,8.509H-53.751a8.511,8.511,0,0,0-6.855,3.467l-7.8,10.6a3.739,3.739,0,0,1-6.024,0l-7.8-10.6a8.511,8.511,0,0,0-6.855-3.467h-11.234a8.51,8.51,0,0,1-8.509-8.509v-30.394A8.51,8.51,0,0,1-100.311-238h57.793A8.51,8.51,0,0,1-34.009-229.491Z" transform="translate(5336.82 -457)" fill="#eaefee" opacity="0.5"/>
    <path id="Path_760" data-name="Path 760" d="M-34.009-229.491V-199.1a8.51,8.51,0,0,1-8.509,8.509H-53.751a8.511,8.511,0,0,0-6.855,3.467l-7.8,10.6a3.739,3.739,0,0,1-6.024,0l-7.8-10.6a8.511,8.511,0,0,0-6.855-3.467h-11.234a8.51,8.51,0,0,1-8.509-8.509v-30.394A8.51,8.51,0,0,1-100.311-238h57.793A8.51,8.51,0,0,1-34.009-229.491Z" transform="translate(5344.82 -451)" fill="none" stroke="#fff" stroke-width="2" opacity="0.5"/>
    <path id="Path_763" data-name="Path 763" d="M-34.009-229.491V-199.1a8.51,8.51,0,0,1-8.509,8.509H-53.751a8.511,8.511,0,0,0-6.855,3.467l-7.8,10.6a3.739,3.739,0,0,1-6.024,0l-7.8-10.6a8.511,8.511,0,0,0-6.855-3.467h-11.234a8.51,8.51,0,0,1-8.509-8.509v-30.394A8.51,8.51,0,0,1-100.311-238h57.793A8.51,8.51,0,0,1-34.009-229.491Z" transform="translate(5023.82 -504)" fill="none" stroke="#fff" stroke-width="2" opacity="0.5"/>
    <path id="Path_762" data-name="Path 762" d="M-34.009-229.491V-199.1a8.51,8.51,0,0,1-8.509,8.509H-53.751a8.511,8.511,0,0,0-6.855,3.467l-7.8,10.6a3.739,3.739,0,0,1-6.024,0l-7.8-10.6a8.511,8.511,0,0,0-6.855-3.467h-11.234a8.51,8.51,0,0,1-8.509-8.509v-30.394A8.51,8.51,0,0,1-100.311-238h57.793A8.51,8.51,0,0,1-34.009-229.491Z" transform="translate(5014.82 -495)" fill="#eaefee" opacity="0.5"/>
    <g id="Group_111" data-name="Group 111" transform="translate(4699.472 -764.679)">
      <path id="Path_741" data-name="Path 741" d="M311.528,541.257l37.629,21.727,37.629-21.727L349.157,519.53Z" transform="translate(0 18.204)" fill="rgba(0,0,0,0.5)" opacity="0.2" style="isolation: isolate"/>
      <path id="Path_742" data-name="Path 742" d="M340.352,503.945h0c-2.869,0-5.2,3.821-5.2,8.536v30.707c0,4.715,2.327,4.909,5.2,4.909h0c2.869,0,5.194-.194,5.194-4.909V512.481C345.546,507.766,343.221,503.945,340.352,503.945Z" transform="translate(8.805 12.396)" fill="url(#linear-gradient)"/>
      <path id="Path_743" data-name="Path 743" d="M317.365,528.567l29.617,15.793L376.6,528.567l-29.617-47.378Z" transform="translate(2.175 3.916)" fill="#062c51" style="isolation: isolate"/>
      <path id="Path_744" data-name="Path 744" d="M320.666,516l25.086,14.485L370.838,516l-25.086-43.454Z" transform="translate(3.405 0.694)" fill="#084387" style="isolation: isolate"/>
      <path id="Path_745" data-name="Path 745" d="M322.989,500.04l21.9,9.787,21.9-9.787-21.9-29.361Z" transform="translate(4.271 0)" fill="#0b559e" style="isolation: isolate"/>
      <path id="Path_746" data-name="Path 746" d="M344.886,470.679v39.148l-21.9-9.787Z" transform="translate(4.271 0)" fill="#084387" style="isolation: isolate"/>
      <path id="Path_747" data-name="Path 747" d="M345.752,522.616V501.268l-16.724-7.621-8.362,14.485Z" transform="translate(3.405 8.559)" fill="#08396b" style="isolation: isolate"/>
      <path id="Path_748" data-name="Path 748" d="M346.982,535.17v-17.1L325.821,505.85l-8.456,13.527Z" transform="translate(2.175 13.106)" fill="#041f35" style="isolation: isolate"/>
    </g>
    <g id="Group_109" data-name="Group 109" transform="translate(5118.472 -790.679)">
      <path id="Path_741-2" data-name="Path 741" d="M311.528,541.257l37.629,21.727,37.629-21.727L349.157,519.53Z" transform="translate(0 18.204)" fill="rgba(0,0,0,0.5)" opacity="0.2" style="isolation: isolate"/>
      <path id="Path_742-2" data-name="Path 742" d="M340.352,503.945h0c-2.869,0-5.2,3.821-5.2,8.536v30.707c0,4.715,2.327,4.909,5.2,4.909h0c2.869,0,5.194-.194,5.194-4.909V512.481C345.546,507.766,343.221,503.945,340.352,503.945Z" transform="translate(8.805 12.396)" fill="url(#linear-gradient)"/>
      <path id="Path_743-2" data-name="Path 743" d="M317.365,528.567l29.617,15.793L376.6,528.567l-29.617-47.378Z" transform="translate(2.175 3.916)" fill="#062c51" style="isolation: isolate"/>
      <path id="Path_744-2" data-name="Path 744" d="M320.666,516l25.086,14.485L370.838,516l-25.086-43.454Z" transform="translate(3.405 0.694)" fill="#084387" style="isolation: isolate"/>
      <path id="Path_745-2" data-name="Path 745" d="M322.989,500.04l21.9,9.787,21.9-9.787-21.9-29.361Z" transform="translate(4.271 0)" fill="#0b559e" style="isolation: isolate"/>
      <path id="Path_746-2" data-name="Path 746" d="M344.886,470.679v39.148l-21.9-9.787Z" transform="translate(4.271 0)" fill="#084387" style="isolation: isolate"/>
      <path id="Path_747-2" data-name="Path 747" d="M345.752,522.616V501.268l-16.724-7.621-8.362,14.485Z" transform="translate(3.405 8.559)" fill="#08396b" style="isolation: isolate"/>
      <path id="Path_748-2" data-name="Path 748" d="M346.982,535.17v-17.1L325.821,505.85l-8.456,13.527Z" transform="translate(2.175 13.106)" fill="#041f35" style="isolation: isolate"/>
    </g>
    <g id="Group_112" data-name="Group 112" transform="translate(4468.472 -894.679)">
      <path id="Path_741-3" data-name="Path 741" d="M311.528,541.257l37.629,21.727,37.629-21.727L349.157,519.53Z" transform="translate(0 18.204)" fill="rgba(0,0,0,0.5)" opacity="0.2" style="isolation: isolate"/>
      <path id="Path_742-3" data-name="Path 742" d="M340.352,503.945h0c-2.869,0-5.2,3.821-5.2,8.536v30.707c0,4.715,2.327,4.909,5.2,4.909h0c2.869,0,5.194-.194,5.194-4.909V512.481C345.546,507.766,343.221,503.945,340.352,503.945Z" transform="translate(8.805 12.396)" fill="url(#linear-gradient)"/>
      <path id="Path_743-3" data-name="Path 743" d="M317.365,528.567l29.617,15.793L376.6,528.567l-29.617-47.378Z" transform="translate(2.175 3.916)" fill="#062c51" style="isolation: isolate"/>
      <path id="Path_744-3" data-name="Path 744" d="M320.666,516l25.086,14.485L370.838,516l-25.086-43.454Z" transform="translate(3.405 0.694)" fill="#084387" style="isolation: isolate"/>
      <path id="Path_745-3" data-name="Path 745" d="M322.989,500.04l21.9,9.787,21.9-9.787-21.9-29.361Z" transform="translate(4.271 0)" fill="#0b559e" style="isolation: isolate"/>
      <path id="Path_746-3" data-name="Path 746" d="M344.886,470.679v39.148l-21.9-9.787Z" transform="translate(4.271 0)" fill="#084387" style="isolation: isolate"/>
      <path id="Path_747-3" data-name="Path 747" d="M345.752,522.616V501.268l-16.724-7.621-8.362,14.485Z" transform="translate(3.405 8.559)" fill="#08396b" style="isolation: isolate"/>
      <path id="Path_748-3" data-name="Path 748" d="M346.982,535.17v-17.1L325.821,505.85l-8.456,13.527Z" transform="translate(2.175 13.106)" fill="#041f35" style="isolation: isolate"/>
    </g>
  </g>
</svg>
