<svg xmlns="http://www.w3.org/2000/svg" width="576" height="353.14" viewBox="0 0 576 353.14">
  <g id="Group_71" data-name="Group 71" transform="translate(-192.641 -60.996)">
    <path id="Path_620" data-name="Path 620" d="M300.571,259.169l.373-83.092-107.93-62.319-.373,83.092Z" transform="translate(0 154.967)" fill="#c6c6c6"/>
    <path id="Path_621" data-name="Path 621" d="M327.984,196.85l.373-83.092-107.93,62.319-.373,83.092Z" transform="translate(80.516 154.967)" fill="#eaefee"/>
    <path id="Path_622" data-name="Path 622" d="M283.445,217.623l.373-83.092-35.977-20.773-.373,83.092Z" transform="translate(161.033 154.967)" fill="#c6c6c6"/>
    <path id="Path_623" data-name="Path 623" d="M328.559,202.126l.373-83.092H256.979l-.373,83.092Z" transform="translate(187.871 170.464)" fill="#d8d8d8"/>
    <path id="Path_624" data-name="Path 624" d="M310.858,196.85l.373-83.092-35.977,20.773-.373,83.092Z" transform="translate(241.549 154.967)" fill="#eaefee"/>
    <path id="Path_625" data-name="Path 625" d="M391.855,259.169l.746-83.092-107.93-62.319-.746,83.092Z" transform="translate(268.11 154.967)" fill="#c6c6c6"/>
    <path id="Path_626" data-name="Path 626" d="M419.269,196.85l.746-83.092-107.93,62.319-.746,83.092Z" transform="translate(348.626 154.967)" fill="#eaefee"/>
    <path id="Path_627" data-name="Path 627" d="M192.735,129.255l107.93-20.773v83.092Z" transform="translate(0.278 139.47)" fill="#874138"/>
    <path id="Path_628" data-name="Path 628" d="M220.149,170.469,364.056,87.377v83.092L220.149,253.56Z" transform="translate(80.795 77.484)" fill="#9e4644"/>
    <path id="Path_629" data-name="Path 629" d="M336.642,108.15l107.93-20.773L300.665,170.469l-107.93,20.773Z" transform="translate(0.278 77.484)" fill="#6b322d"/>
    <path id="Path_630" data-name="Path 630" d="M311.528,191.574V108.482l107.93,20.773Z" transform="translate(349.182 139.47)" fill="#9e4644"/>
    <path id="Path_631" data-name="Path 631" d="M274.977,170.469V87.377l143.907,83.092V253.56Z" transform="translate(241.827 77.484)" fill="#874138"/>
    <path id="Path_632" data-name="Path 632" d="M526.813,191.242l-107.93-20.773L274.977,87.377l107.93,20.773Z" transform="translate(241.827 77.484)" fill="#b7584b"/>
    <path id="Path_633" data-name="Path 633" d="M256.7,170.469l35.977,20.773V108.15L256.7,87.377Z" transform="translate(188.15 77.484)" fill="#874138"/>
    <path id="Path_634" data-name="Path 634" d="M301.815,170.469l-35.977,20.773V108.15l35.977-20.773Z" transform="translate(214.989 77.484)" fill="#9e4644"/>
    <path id="Path_635" data-name="Path 635" d="M256.126,123.647l-35.977-20.773L328.079,82.1l35.977,20.773Z" transform="translate(80.795 61.987)" fill="#874138"/>
    <path id="Path_636" data-name="Path 636" d="M418.137,103.3,310.953,82.1l-35.977,20.773,107.93,20.773Z" transform="translate(241.827 61.987)" fill="#9e4644"/>
    <path id="Path_637" data-name="Path 637" d="M220.149,164.86,400.032,61v41.546l-71.953,41.546Z" transform="translate(80.795 0)" fill="#6b322d"/>
    <path id="Path_638" data-name="Path 638" d="M444.976,165.291,265.839,61v41.546l71.953,41.546Z" transform="translate(214.989 0)" fill="#b7584b"/>
    <path id="Path_639" data-name="Path 639" d="M247.563,133.585l71.953-69.014v110.56Z" transform="translate(161.311 10.502)" fill="#874138"/>
    <path id="Path_640" data-name="Path 640" d="M337.792,133.585,265.839,64.571v110.56Z" transform="translate(214.989 10.502)" fill="#9e4644"/>
    <path id="Path_641" data-name="Path 641" d="M247.563,129.255l35.977-20.773,35.977,20.773v20.773H283.539Z" transform="translate(161.311 139.47)" fill="#eaefee"/>
    <path id="Path_642" data-name="Path 642" d="M337.792,129.255l-35.977-20.773-35.977,20.773v20.773h35.977Z" transform="translate(214.989 139.47)" fill="#c6c6c6"/>
    <path id="Path_643" data-name="Path 643" d="M220.149,87.377v41.546l35.977-20.773Z" transform="translate(80.795 77.484)" fill="#c6c6c6"/>
    <path id="Path_644" data-name="Path 644" d="M337.621,129.032V87.486L302.39,107.829Z" transform="translate(322.343 77.805)" fill="#eaefee"/>
    <g id="Group_69" data-name="Group 69" transform="translate(485.245 124.813)">
      <rect id="Rectangle_9" data-name="Rectangle 9" width="4.488" height="24.55" transform="translate(0 23.051) rotate(-29.111)" fill="#c6c6c6"/>
      <path id="Path_645" data-name="Path 645" d="M270.536,92.436l6.121-3.409,9.977,17.916,3.951-2.2-9.976-17.916,6.151-3.425-1.967-3.533L268.569,88.9Z" transform="translate(-262.238 -69.378)" fill="#c6c6c6"/>
      <path id="Path_646" data-name="Path 646" d="M285.964,79.3l5.055,9.083c1.031,1.85,1.988,3.528,3.008,5.177-1.355-.862-2.807-1.717-4.378-2.571l-12.485-6.788-3.862,2.15L285.243,107.8l3.772-2.1-5.158-9.26c-1.181-2.122-2.173-3.85-3.134-5.445,1.4.878,2.988,1.811,4.854,2.835l12.445,6.858,3.654-2.035L289.732,77.2Z" transform="translate(-248.336 -77.205)" fill="#c6c6c6"/>
    </g>
    <g id="Group_70" data-name="Group 70" transform="translate(423.64 123.431)">
      <rect id="Rectangle_10" data-name="Rectangle 10" width="24.55" height="4.488" transform="translate(0 21.449) rotate(-60.89)" fill="#c6c6c6"/>
      <path id="Path_647" data-name="Path 647" d="M258.331,81.282l6.122,3.409-9.976,17.916,3.951,2.2L268.4,86.891l6.151,3.425,1.967-3.533L260.3,77.749Z" transform="translate(-242.024 -74.224)" fill="#c6c6c6"/>
      <path id="Path_648" data-name="Path 648" d="M282.261,87.432,277.2,96.515c-1.028,1.85-1.949,3.547-2.815,5.284.02-1.606-.02-3.287-.122-5.075l-.8-14.189-3.862-2.15-11.945,21.449,3.772,2.1,5.158-9.26c1.181-2.122,2.126-3.878,2.98-5.536-.016,1.65.035,3.5.146,5.622l.724,14.189,3.654,2.035,11.945-21.449Z" transform="translate(-232.691 -66.483)" fill="#c6c6c6"/>
    </g>
  </g>
</svg>
