<svg xmlns="http://www.w3.org/2000/svg" width="1004" height="701" viewBox="0 0 1004 701">
  <g id="Group_115" data-name="Group 115" transform="translate(-4728 748)">
    <path id="Path_685" data-name="Path 685" d="M249.006,94.39a8.883,8.883,0,0,1-4.051,7.451l-.614.347-31.318,18.16-.529.307-.016-.013a12.917,12.917,0,0,1-6.5,1.769,13.062,13.062,0,0,1-4.123-25.457,19.376,19.376,0,0,1,36.959-11.323,7.012,7.012,0,0,1,1.309-.11A8.877,8.877,0,0,1,249.006,94.39Z" transform="translate(4850.086 -767.477)" fill="#fff"/>
    <path id="Path_686" data-name="Path 686" d="M381.236,91.914a8.882,8.882,0,0,1-4.054,7.451l-.61.347-31.321,18.16-.529.307-.016-.016a12.917,12.917,0,0,1-6.5,1.769,13.062,13.062,0,0,1-4.123-25.457,19.376,19.376,0,0,1,36.959-11.32,6.768,6.768,0,0,1,1.312-.113A8.881,8.881,0,0,1,381.236,91.914Z" transform="translate(5060.793 -629.758)" fill="#fff"/>
    <path id="Path_687" data-name="Path 687" d="M381.235,91.914a8.882,8.882,0,0,1-4.054,7.451l-.61.347-31.321,18.16-.529.307-.016-.016a12.917,12.917,0,0,1-6.5,1.769,13.062,13.062,0,0,1-4.123-25.457,19.376,19.376,0,0,1,36.959-11.32,6.768,6.768,0,0,1,1.312-.113A8.881,8.881,0,0,1,381.235,91.914Z" transform="translate(4536.793 -641.758)" fill="#fff"/>
    <rect id="Rectangle_36" data-name="Rectangle 36" width="1004" height="701" transform="translate(4728 -748)" fill="none"/>
  </g>
</svg>
