<svg xmlns="http://www.w3.org/2000/svg" width="1004" height="701" viewBox="0 0 1004 701">
  <g id="Group_113" data-name="Group 113" transform="translate(-4728 748)">
    <rect id="Rectangle_36" data-name="Rectangle 36" width="1004" height="701" transform="translate(4728 -748)" fill="none"/>
    <path id="Path_761" data-name="Path 761" d="M-34.009-229.491V-199.1a8.51,8.51,0,0,1-8.509,8.509H-53.751a8.511,8.511,0,0,0-6.855,3.467l-7.8,10.6a3.739,3.739,0,0,1-6.024,0l-7.8-10.6a8.511,8.511,0,0,0-6.855-3.467h-11.234a8.51,8.51,0,0,1-8.509-8.509v-30.394A8.51,8.51,0,0,1-100.311-238h57.793A8.51,8.51,0,0,1-34.009-229.491Z" transform="translate(5336.82 -457)" fill="#eaefee" opacity="0.5"/>
    <path id="Path_760" data-name="Path 760" d="M-34.009-229.491V-199.1a8.51,8.51,0,0,1-8.509,8.509H-53.751a8.511,8.511,0,0,0-6.855,3.467l-7.8,10.6a3.739,3.739,0,0,1-6.024,0l-7.8-10.6a8.511,8.511,0,0,0-6.855-3.467h-11.234a8.51,8.51,0,0,1-8.509-8.509v-30.394A8.51,8.51,0,0,1-100.311-238h57.793A8.51,8.51,0,0,1-34.009-229.491Z" transform="translate(5344.82 -451)" fill="none" stroke="#fff" stroke-width="2" opacity="0.5"/>
    <path id="Path_763" data-name="Path 763" d="M-34.009-229.491V-199.1a8.51,8.51,0,0,1-8.509,8.509H-53.751a8.511,8.511,0,0,0-6.855,3.467l-7.8,10.6a3.739,3.739,0,0,1-6.024,0l-7.8-10.6a8.511,8.511,0,0,0-6.855-3.467h-11.234a8.51,8.51,0,0,1-8.509-8.509v-30.394A8.51,8.51,0,0,1-100.311-238h57.793A8.51,8.51,0,0,1-34.009-229.491Z" transform="translate(5023.82 -504)" fill="none" stroke="#fff" stroke-width="2" opacity="0.5"/>
    <path id="Path_762" data-name="Path 762" d="M-34.009-229.491V-199.1a8.51,8.51,0,0,1-8.509,8.509H-53.751a8.511,8.511,0,0,0-6.855,3.467l-7.8,10.6a3.739,3.739,0,0,1-6.024,0l-7.8-10.6a8.511,8.511,0,0,0-6.855-3.467h-11.234a8.51,8.51,0,0,1-8.509-8.509v-30.394A8.51,8.51,0,0,1-100.311-238h57.793A8.51,8.51,0,0,1-34.009-229.491Z" transform="translate(5014.82 -495)" fill="#eaefee" opacity="0.5"/>
  </g>
</svg>
