<svg xmlns="http://www.w3.org/2000/svg" width="58" height="58" viewBox="0 0 58 58">
  <g id="Group_113" data-name="Group 113" transform="translate(2131 1399)">
    <rect id="Rectangle_38" data-name="Rectangle 38" width="58" height="58" transform="translate(-2131 -1399)" fill="none"/>
    <path  fill="white" id="Icon_awesome-angle-double-up" data-name="Icon awesome-angle-double-up" d="M17.7,23.882l13.6,13.6a2.389,2.389,0,0,1,0,3.389l-2.259,2.259a2.389,2.389,0,0,1-3.389,0L16,33.5,6.359,43.136a2.389,2.389,0,0,1-3.389,0L.7,40.877a2.389,2.389,0,0,1,0-3.389l13.6-13.6A2.392,2.392,0,0,1,17.7,23.882ZM14.3,4.688.7,18.284a2.389,2.389,0,0,0,0,3.389l2.259,2.259a2.389,2.389,0,0,0,3.389,0l9.637-9.637,9.637,9.637a2.389,2.389,0,0,0,3.389,0l2.259-2.259a2.389,2.389,0,0,0,0-3.389l-13.6-13.6a2.377,2.377,0,0,0-3.379,0Z" transform="translate(-2117.997 -1393.983)"/>
  </g>
</svg>
