<svg xmlns="http://www.w3.org/2000/svg" width="45" height="45" viewBox="0 0 45 45">
  <g id="Group_114" data-name="Group 114" transform="translate(2131 1399)">
    <rect id="Rectangle_38" data-name="Rectangle 38" width="45" height="45" transform="translate(-2131 -1399)" fill="none"/>
    <path id="Icon_awesome-angle-double-up" data-name="Icon awesome-angle-double-up" d="M17.691,23.877,31.283,37.469a2.389,2.389,0,0,1,0,3.388l-2.259,2.259a2.389,2.389,0,0,1-3.388,0l-9.644-9.624L6.358,43.126a2.389,2.389,0,0,1-3.388,0L.7,40.867a2.389,2.389,0,0,1,0-3.388L14.293,23.887A2.392,2.392,0,0,1,17.691,23.877Zm-3.4-19.189L.7,18.28a2.389,2.389,0,0,0,0,3.388L2.96,23.927a2.389,2.389,0,0,0,3.388,0l9.634-9.634,9.634,9.634a2.389,2.389,0,0,0,3.388,0l2.259-2.259a2.389,2.389,0,0,0,0-3.388L17.671,4.688a2.377,2.377,0,0,0-3.378,0Z" transform="translate(-2124.988 -1400.734)"/>
  </g>
</svg>
